<?xml version="1.0" standalone="no"?><!DOCTYPE svg PUBLIC "-//W3C//DTD SVG 1.1//EN" "http://www.w3.org/Graphics/SVG/1.1/DTD/svg11.dtd"><svg t="1590760740355" class="icon" viewBox="0 0 1024 1024" version="1.1" xmlns="http://www.w3.org/2000/svg" p-id="2821" xmlns:xlink="http://www.w3.org/1999/xlink" width="200" height="200"><defs><style type="text/css"></style></defs><path d="M313.6 398.933333v59.733334c0 14.933333 68.266667 57.6 198.4 57.6s198.4-42.666667 198.4-57.6v-59.733334c-40.533333 25.6-115.2 44.8-198.4 44.8s-157.866667-19.2-198.4-44.8zM313.6 614.4v59.733333c0 14.933333 68.266667 57.6 198.4 57.6s198.4-42.666667 198.4-57.6v-59.733333c-40.533333 25.6-115.2 44.8-198.4 44.8s-157.866667-17.066667-198.4-44.8z" fill="#3D7EFF" p-id="2822"></path><path d="M313.6 505.6v59.733333c0 14.933333 68.266667 57.6 198.4 57.6s198.4-42.666667 198.4-57.6v-59.733333C669.866667 533.333333 597.333333 550.4 512 550.4s-157.866667-17.066667-198.4-44.8zM512 290.133333c-130.133333 0-198.4 42.666667-198.4 57.6 0 14.933333 68.266667 57.6 198.4 57.6s198.4-42.666667 198.4-57.6c0-12.8-68.266667-57.6-198.4-57.6z" fill="#3D7EFF" p-id="2823"></path><path d="M512 0C228.266667 0 0 228.266667 0 512s228.266667 512 512 512 512-228.266667 512-512S795.733333 0 512 0z m234.666667 674.133333C746.666667 725.333333 642.133333 768 512 768s-234.666667-42.666667-234.666667-93.866667V349.866667C277.333333 298.666667 381.866667 256 512 256s234.666667 42.666667 234.666667 93.866667v324.266666z" fill="#3D7EFF" p-id="2824"></path></svg>